PathFileType	4	(X/Y/Z)	G:\Shared drives\HPL_Drive\Nord Sprinting Study\Kristen_Nord_test\Trimmed_Nord000006.trc
DataRate	CameraRate	NumFrames	NumMarkers	Units	OrigDataRate	OrigDataStartFrame	OrigNumFrames
200.00	200.00	      4	52	mm	200.00	256	      2043
Frame#	Time	C7			R_Shoulder			L_Shoulder			Sternum			R_humerus			R_elbow_med			R_elbow_lat			R_forearm			R_wrist_radius			R_wrist_ulna			L_humerus			L_elbow_med			L_elbow_lat			L_forearm			L_wrist_radius			L_wrist_ulna			r.ASIS			r.PSIS			r_IC			L.ASIS			L.PSIS			l_IC			r_thigh1			r_thigh2			r_thigh3			r_thigh4			r_thigh5			r_knee			r_mknee			r_shank_antsup			r_sh2			r_sh3			r_sh4			r_ankle			r_mankle			r_calc			r_5meta			r_toe			L_thigh1			L_thigh2			L_thigh3			L_thigh4			L_knee			L_mknee			L_shank_antsup			L_sh2			L_sh3			L_ankle			L_mankle			L_calc			L_5meta			L_toe			
		X1	Y1	Z1	X2	Y2	Z2	X3	Y3	Z3	X4	Y4	Z4	X5	Y5	Z5	X6	Y6	Z6	X7	Y7	Z7	X8	Y8	Z8	X9	Y9	Z9	X10	Y10	Z10	X11	Y11	Z11	X12	Y12	Z12	X13	Y13	Z13	X14	Y14	Z14	X15	Y15	Z15	X16	Y16	Z16	X17	Y17	Z17	X18	Y18	Z18	X19	Y19	Z19	X20	Y20	Z20	X21	Y21	Z21	X22	Y22	Z22	X23	Y23	Z23	X24	Y24	Z24	X25	Y25	Z25	X26	Y26	Z26	X27	Y27	Z27	X28	Y28	Z28	X29	Y29	Z29	X30	Y30	Z30	X31	Y31	Z31	X32	Y32	Z32	X33	Y33	Z33	X34	Y34	Z34	X35	Y35	Z35	X36	Y36	Z36	X37	Y37	Z37	X38	Y38	Z38	X39	Y39	Z39	X40	Y40	Z40	X41	Y41	Z41	X42	Y42	Z42	X43	Y43	Z43	X44	Y44	Z44	X45	Y45	Z45	X46	Y46	Z46	X47	Y47	Z47	X48	Y48	Z48	X49	Y49	Z49	X50	Y50	Z50	X51	Y51	Z51	X52	Y52	Z52	

256	1.275	1226.17395	298.74759	1289.90369	1341.33191	348.62585	1295.58911	1092.74829	334.32825	1309.03540	1211.66248	428.68472	1248.02576	1517.27209	328.09280	1272.75330	1648.97681	366.79523	1194.68420	1647.17871	300.72543	1237.36523	1645.84717	359.00137	1353.78760	1617.71362	440.11566	1436.88977	1659.27368	420.97827	1448.60413	895.06061	287.74591	1285.67432	775.48901	316.39780	1211.37524	780.50867	249.88655	1250.00586	814.90741	319.94440	1376.79602	857.28082	383.90976	1442.28845	808.28265	379.88785	1455.65894	1333.39551	445.72745	785.66064	1289.84424	268.62952	857.87402	1373.18164	375.53873	872.08612	1092.47778	429.94214	782.88452	1174.32336	263.61606	851.41199	1068.43433	366.62726	860.94104	1395.97302	397.89078	528.54425	1393.10522	389.40891	413.50339	1406.36475	339.61356	388.72787	1402.98535	290.37985	539.11890	1386.24719	283.96371	420.85245	1391.05945	341.63425	312.72955	1263.21545	326.54904	316.33926	1411.18066	207.28943	292.24591	1391.25232	89.29971	287.16245	1404.82434	201.92857	367.13080	1386.31116	89.05449	369.01382	1370.54541	-81.58163	323.08105	1297.54675	-56.35621	284.03650	1313.43921	-115.57236	370.40799	1390.30481	-142.08858	211.89935	1354.51636	-109.64540	167.76366	1025.36755	393.52869	532.43768	1023.66418	387.92108	392.39581	1030.80872	273.19055	545.10297	1035.70227	276.40314	407.90286	1011.21155	319.23233	328.33444	1142.57434	329.22070	307.61136	997.27893	212.55524	294.31161	1008.31555	211.45987	384.56827	1019.95074	91.83167	374.01370	1025.68274	-83.72100	329.91470	1100.76294	-55.73200	287.64218	1085.78564	-101.48465	373.76260	1005.61176	-153.35339	216.00050	1043.81470	-123.04778	164.17085	
257	1.280	1226.18750	299.07309	1289.83240	1341.38489	348.96445	1295.56934	1092.77380	334.69006	1309.01904	1211.66296	429.06961	1247.98242	1517.26501	328.38327	1272.69714	1648.96716	367.09613	1194.56677	1647.14502	301.00027	1237.27454	1645.89709	359.26257	1353.68445	1617.74304	440.42291	1436.80408	1659.34204	421.29819	1448.50061	895.08551	288.08673	1285.64722	775.50977	316.78818	1211.38562	780.54712	250.30266	1249.94482	814.91479	320.34595	1376.81897	857.28131	384.28354	1442.27209	808.32104	380.29395	1455.58203	1333.33179	445.98343	785.67035	1289.85242	268.90488	857.84430	1373.21497	375.79776	872.03455	1092.51416	430.25443	782.76758	1174.33545	263.90582	851.23914	1068.42603	366.90112	860.90417	1395.99036	398.02936	528.48566	1393.08618	389.49564	413.49203	1406.40674	339.68329	388.70319	1403.02600	290.51306	539.14545	1385.67615	283.47076	420.91333	1391.09387	341.63019	312.65768	1263.23254	326.54910	316.34924	1411.22327	207.14012	292.03778	1391.28552	89.29405	287.15579	1404.80237	201.92842	367.13422	1386.35486	89.03206	369.02020	1370.58643	-81.60279	323.11203	1297.58081	-56.33852	283.99838	1313.47595	-115.58289	370.40982	1390.82275	-142.10193	212.16159	1354.54749	-109.64998	167.67877	1025.33740	393.68726	532.41077	1023.67438	387.96286	392.35022	1030.76184	273.43668	545.14069	1035.71753	276.45306	407.94946	1011.21088	319.23444	328.32739	1142.53955	329.20972	307.62372	997.25421	212.63651	294.22308	1008.11041	211.24356	384.83917	1019.35956	92.52840	374.15244	1025.68677	-83.71906	329.92288	1100.76721	-55.74599	287.67215	1085.70752	-101.53954	373.77634	1005.57947	-153.34479	216.00246	1043.80615	-123.00948	164.13840	
258	1.285	1226.20752	299.41327	1289.75330	1341.38647	349.31418	1295.55298	1092.76367	335.05066	1308.99878	1211.67920	429.43637	1247.96167	1517.28296	328.67844	1272.60559	1648.99023	367.36441	1194.45862	1647.15344	301.29700	1237.18396	1645.91699	359.54523	1353.59070	1617.49121	440.71964	1436.81604	1659.32288	421.73880	1448.48865	895.10760	288.49713	1285.56970	775.53064	317.21036	1211.34460	780.60883	250.74850	1249.87134	814.97119	320.72964	1376.73376	857.32898	384.63190	1442.17871	808.41107	380.69864	1455.54358	1333.33801	446.27054	785.64032	1289.85791	269.19144	857.85730	1373.22607	376.10501	871.95831	1092.55725	430.54544	782.71484	1174.35754	264.17307	851.44781	1068.42053	367.17859	860.88220	1395.98267	398.13699	528.42664	1393.08472	389.59439	413.44196	1406.39014	339.74527	388.70657	1403.02271	290.66815	539.16498	1385.67712	283.53085	420.91684	1391.11426	341.62479	312.61835	1263.26196	326.51883	316.38885	1411.20544	207.14124	292.00067	1391.24353	89.31676	287.18027	1404.88928	201.94551	367.11493	1386.38037	89.06771	369.02939	1370.64600	-81.58353	323.06000	1297.58594	-56.36607	284.01053	1313.52649	-115.57037	370.36142	1390.86658	-142.10826	212.11340	1354.57715	-109.64842	167.64398	1025.34680	393.85443	532.36084	1023.62085	388.00500	392.33798	1030.73230	273.54065	545.21710	1035.75037	276.53729	407.97626	1011.20557	319.25134	328.31854	1142.57092	329.19366	307.63641	997.31146	212.54010	294.38116	1008.33643	211.92488	384.62582	1019.93011	91.82492	374.01733	1025.65088	-83.73055	329.93454	1100.74963	-55.74466	287.62930	1085.72302	-101.54759	373.70441	1005.56494	-153.33258	216.04416	1043.81482	-123.02074	164.10213	
259	1.290	1226.18396	299.75076	1289.72607	1341.42017	349.68250	1295.46887	1092.78101	335.41061	1308.95325	1211.71655	429.83295	1247.82605	1517.31677	328.98776	1272.54883	1649.02991	367.66476	1194.33813	1647.17017	301.58481	1237.06287	1645.96838	359.83194	1353.44617	1617.53528	441.03308	1436.74060	1659.39441	422.04120	1448.40857	895.05835	288.91428	1285.62512	775.23553	317.40521	1211.76855	780.40802	251.21307	1249.97852	814.95251	321.16116	1376.73206	857.36804	385.08017	1442.13135	808.43500	381.10770	1455.50488	1333.35339	446.54688	785.53394	1289.86536	269.47665	857.82947	1373.21252	376.41443	871.91986	1092.48999	430.71957	782.69647	1174.35193	264.42688	851.41473	1068.40466	367.47058	860.86859	1396.00610	398.27237	528.36621	1393.08972	389.66763	413.42175	1406.41223	339.81296	388.67575	1403.08765	290.80765	539.18982	1385.67114	283.61923	420.93936	1391.11316	341.62537	312.57339	1263.26550	326.46246	316.42999	1411.18176	207.29904	292.21497	1391.28479	89.30389	287.12772	1404.87817	201.93947	367.12827	1386.40381	89.04028	369.02185	1370.71399	-81.57756	323.00110	1297.57861	-56.37409	284.10794	1313.57642	-115.57224	370.41147	1390.42029	-142.10814	211.83478	1354.63245	-109.68517	167.53809	1025.32605	393.94910	532.33508	1023.65363	388.04044	392.25699	1030.68530	273.71869	545.21997	1035.75891	276.58878	408.02994	1011.21796	319.26233	328.28317	1142.54895	329.19180	307.64258	997.30493	212.58971	294.35159	1008.25317	211.46892	384.58701	1019.92865	91.81155	374.03015	1025.64001	-83.72995	329.91629	1100.81848	-55.79161	287.59625	1085.75854	-101.59705	373.71375	1005.53186	-153.30986	216.02367	1043.79187	-123.01726	164.21516	
